# Blender v3.2.1 OBJ File: ''
# www.blender.org
mtllib coffemug.mtl
o Cylinder
v -0.096441 -1.000000 -0.995339
v -0.096441 1.172251 -0.995339
v 0.099593 -1.000000 -0.995028
v 0.099593 1.172251 -0.995028
v 0.291800 -1.000000 -0.956479
v 0.291800 1.172251 -0.956479
v 0.472793 -1.000000 -0.881174
v 0.472793 1.172251 -0.881174
v 0.635616 -1.000000 -0.772005
v 0.635616 1.172251 -0.772005
v 0.774014 -1.000000 -0.633168
v 0.774014 1.172251 -0.633168
v 0.882667 -1.000000 -0.470000
v 0.882667 1.172251 -0.470000
v 0.957399 -1.000000 -0.288769
v 0.957399 1.172251 -0.288769
v 0.995339 -1.000000 -0.096441
v 0.995339 1.172251 -0.096441
v 0.995028 -1.000000 0.099593
v 0.995028 1.172251 0.099593
v 0.956479 -1.000000 0.291800
v 0.956479 1.172251 0.291800
v 0.881174 -1.000000 0.472793
v 0.881174 1.172251 0.472793
v 0.772005 -1.000000 0.635616
v 0.772005 1.172251 0.635616
v 0.633168 -1.000000 0.774014
v 0.633168 1.172251 0.774014
v 0.470000 -1.000000 0.882667
v 0.470000 1.172251 0.882667
v 0.288769 -1.000000 0.957399
v 0.288769 1.172251 0.957399
v 0.096441 -1.000000 0.995339
v 0.096441 1.172251 0.995339
v -0.099593 -1.000000 0.995028
v -0.099593 1.172251 0.995028
v -0.291800 -1.000000 0.956479
v -0.291800 1.172251 0.956479
v -0.472793 -1.000000 0.881174
v -0.472793 1.172251 0.881174
v -0.635616 -1.000000 0.772005
v -0.635616 1.172251 0.772005
v -0.774014 -1.000000 0.633169
v -0.774014 1.172251 0.633169
v -0.882667 -1.000000 0.470000
v -0.882667 1.172251 0.470000
v -0.957399 -1.000000 0.288769
v -0.957399 1.172251 0.288769
v -0.995339 -1.000000 0.096441
v -0.995339 1.172251 0.096441
v -0.995028 -1.000000 -0.099593
v -0.995028 1.172251 -0.099593
v -0.956479 -1.000000 -0.291800
v -0.956479 1.172251 -0.291800
v -0.881174 -1.000000 -0.472792
v -0.881174 1.172251 -0.472792
v -0.772005 -1.000000 -0.635616
v -0.772005 1.172251 -0.635616
v -0.633169 -1.000000 -0.774014
v -0.633169 1.172251 -0.774014
v -0.470000 -1.000000 -0.882667
v -0.470000 1.172251 -0.882667
v -0.288769 -1.000000 -0.957399
v -0.288769 1.172251 -0.957399
v -0.087668 1.172251 -0.904793
v 0.090533 1.172251 -0.904511
v 0.265255 1.172251 -0.869469
v 0.429783 1.172251 -0.801013
v 0.577795 1.172251 -0.701776
v 0.703602 1.172251 -0.575569
v 0.802371 1.172251 -0.427244
v 0.870304 1.172251 -0.262500
v 0.904793 1.172251 -0.087668
v 0.904511 1.172251 0.090533
v 0.869469 1.172251 0.265255
v 0.801014 1.172251 0.429783
v 0.701776 1.172251 0.577795
v 0.575569 1.172251 0.703602
v 0.427244 1.172251 0.802371
v 0.262500 1.172251 0.870304
v 0.087668 1.172251 0.904793
v -0.090533 1.172251 0.904511
v -0.265255 1.172251 0.869469
v -0.429783 1.172251 0.801013
v -0.577794 1.172251 0.701776
v -0.703602 1.172251 0.575569
v -0.802371 1.172251 0.427244
v -0.870304 1.172251 0.262500
v -0.904793 1.172251 0.087668
v -0.904511 1.172251 -0.090533
v -0.869469 1.172251 -0.265255
v -0.801014 1.172251 -0.429783
v -0.701776 1.172251 -0.577794
v -0.575569 1.172251 -0.703602
v -0.427244 1.172251 -0.802371
v -0.262500 1.172251 -0.870304
v -0.087668 -0.971119 -0.904793
v 0.090533 -0.971119 -0.904511
v 0.265255 -0.971119 -0.869469
v 0.429783 -0.971119 -0.801013
v 0.577795 -0.971119 -0.701776
v 0.703602 -0.971119 -0.575569
v 0.802371 -0.971119 -0.427244
v 0.870304 -0.971119 -0.262500
v 0.904793 -0.971119 -0.087668
v 0.904511 -0.971119 0.090533
v 0.869469 -0.971119 0.265255
v 0.801014 -0.971119 0.429783
v 0.701776 -0.971119 0.577795
v 0.575569 -0.971119 0.703602
v 0.427244 -0.971119 0.802371
v 0.262500 -0.971119 0.870304
v 0.087668 -0.971119 0.904793
v -0.090533 -0.971119 0.904511
v -0.265254 -0.971119 0.869469
v -0.429783 -0.971119 0.801013
v -0.577794 -0.971119 0.701776
v -0.703602 -0.971119 0.575569
v -0.802370 -0.971119 0.427244
v -0.870304 -0.971119 0.262500
v -0.904793 -0.971119 0.087668
v -0.904511 -0.971119 -0.090533
v -0.869469 -0.971119 -0.265255
v -0.801013 -0.971119 -0.429783
v -0.701776 -0.971119 -0.577794
v -0.575569 -0.971119 -0.703602
v -0.427244 -0.971119 -0.802371
v -0.262500 -0.971119 -0.870304
v -0.096441 0.742150 -0.995339
v 0.099593 0.742150 -0.995028
v 0.291800 0.742150 -0.956479
v 0.472793 0.742150 -0.881174
v 0.635616 0.742150 -0.772005
v 0.774014 0.742150 -0.633168
v 0.882667 0.742150 -0.470000
v 0.957399 0.742150 -0.288769
v 0.995339 0.742150 -0.096441
v 0.995028 0.742150 0.099593
v 0.956479 0.742150 0.291800
v 0.881174 0.742150 0.472793
v 0.772005 0.742150 0.635616
v 0.633168 0.742150 0.774014
v 0.470000 0.742150 0.882667
v 0.288769 0.742150 0.957399
v 0.096441 0.742150 0.995339
v -0.099593 0.742150 0.995028
v -0.291800 0.742150 0.956479
v -0.472793 0.742150 0.881174
v -0.635616 0.742150 0.772005
v -0.774014 0.742150 0.633169
v -0.882667 0.742150 0.470000
v -0.957399 0.742150 0.288769
v -0.995339 0.742150 0.096441
v -0.995028 0.742150 -0.099593
v -0.956479 0.742150 -0.291800
v -0.881174 0.742150 -0.472792
v -0.772005 0.742150 -0.635616
v -0.633169 0.742150 -0.774014
v -0.470000 0.742150 -0.882667
v -0.288769 0.742150 -0.957399
v -0.096441 0.936243 -0.995339
v 0.099593 0.936243 -0.995028
v 0.291800 0.936243 -0.956479
v 0.472793 0.936243 -0.881174
v 0.635616 0.936243 -0.772005
v 0.774014 0.936243 -0.633168
v 0.882667 0.936243 -0.470000
v 0.957399 0.936243 -0.288769
v 0.995339 0.936243 -0.096441
v 0.995028 0.936243 0.099593
v 0.956479 0.936243 0.291800
v 0.881174 0.936243 0.472793
v 0.772005 0.936243 0.635616
v 0.633168 0.936243 0.774014
v 0.470000 0.936243 0.882667
v 0.288769 0.936243 0.957399
v 0.096441 0.936243 0.995339
v -0.099593 0.936243 0.995028
v -0.291800 0.936243 0.956479
v -0.472793 0.936243 0.881174
v -0.635616 0.936243 0.772005
v -0.774014 0.936243 0.633169
v -0.882667 0.936243 0.470000
v -0.957399 0.936243 0.288769
v -0.995339 0.936243 0.096441
v -0.995028 0.936243 -0.099593
v -0.956479 0.936243 -0.291800
v -0.881174 0.936243 -0.472792
v -0.772005 0.936243 -0.635616
v -0.633169 0.936243 -0.774014
v -0.470000 0.936243 -0.882667
v -0.288769 0.936243 -0.957399
v 1.272763 0.896859 -0.096175
v 1.156454 0.741475 -0.096175
v 1.272515 0.897045 0.099859
v 1.156206 0.741661 0.099859
v 1.409256 0.642909 -0.095836
v 1.225906 0.579232 -0.095836
v 1.409155 0.643202 0.100198
v 1.225804 0.579525 0.100198
v 1.442667 0.346872 -0.095506
v 1.254956 0.396234 -0.095506
v 1.442746 0.347173 0.100528
v 1.255035 0.396534 0.100528
v 1.449962 0.019151 -0.095076
v 1.257622 -0.006879 -0.095076
v 1.449920 0.019459 0.100958
v 1.257581 -0.006572 0.100958
v 1.136899 0.936487 -0.096308
v 1.078745 0.761749 -0.096308
v 1.078465 0.761842 0.099726
v 1.136620 0.936581 0.099726
v 1.312274 -0.231343 -0.094820
v 1.170591 -0.098686 -0.094821
v 1.312486 -0.231116 0.101214
v 1.170803 -0.098459 0.101213
v 0.955598 -0.300818 -0.094538
v 0.953333 -0.106738 -0.094538
v 0.955908 -0.300814 0.101496
v 0.953643 -0.106734 0.101496
v 0.847353 -0.302081 -0.094367
v 0.845088 -0.108001 -0.094367
v 0.847663 -0.302077 0.101667
v 0.845398 -0.107997 0.101667
vt 1.000000 0.902630
vt 1.000000 1.000000
vt 0.968750 1.000000
vt 0.968750 0.902630
vt 0.937500 1.000000
vt 0.937500 0.902630
vt 0.906250 1.000000
vt 0.906250 0.902630
vt 0.875000 1.000000
vt 0.875000 0.902630
vt 0.843750 1.000000
vt 0.843750 0.902630
vt 0.812500 1.000000
vt 0.812500 0.902630
vt 0.781250 1.000000
vt 0.781250 0.902630
vt 0.750000 1.000000
vt 0.750000 0.902630
vt 0.718750 1.000000
vt 0.718750 0.902630
vt 0.687500 1.000000
vt 0.687500 0.902630
vt 0.656250 1.000000
vt 0.656250 0.902630
vt 0.625000 1.000000
vt 0.625000 0.902630
vt 0.593750 1.000000
vt 0.593750 0.902630
vt 0.562500 1.000000
vt 0.562500 0.902630
vt 0.531250 1.000000
vt 0.531250 0.902630
vt 0.500000 1.000000
vt 0.500000 0.902630
vt 0.468750 1.000000
vt 0.468750 0.902630
vt 0.437500 1.000000
vt 0.437500 0.902630
vt 0.406250 1.000000
vt 0.406250 0.902630
vt 0.375000 1.000000
vt 0.375000 0.902630
vt 0.343750 1.000000
vt 0.343750 0.902630
vt 0.312500 1.000000
vt 0.312500 0.902630
vt 0.281250 1.000000
vt 0.281250 0.902630
vt 0.250000 1.000000
vt 0.250000 0.902630
vt 0.218750 1.000000
vt 0.218750 0.902630
vt 0.187500 1.000000
vt 0.187500 0.902630
vt 0.156250 1.000000
vt 0.156250 0.902630
vt 0.125000 1.000000
vt 0.125000 0.902630
vt 0.093750 1.000000
vt 0.093750 0.902630
vt 0.062500 1.000000
vt 0.062500 0.902630
vt 0.781250 1.000000
vt 0.750000 1.000000
vt 0.031250 1.000000
vt 0.031250 0.902630
vt 0.000000 1.000000
vt 0.000000 0.902630
vt 0.750000 0.490000
vt 0.796822 0.485388
vt 0.841844 0.471731
vt 0.883337 0.449553
vt 0.919706 0.419706
vt 0.949553 0.383337
vt 0.971731 0.341844
vt 0.985388 0.296822
vt 0.990000 0.250000
vt 0.985388 0.203178
vt 0.971731 0.158156
vt 0.949553 0.116663
vt 0.919706 0.080294
vt 0.883337 0.050447
vt 0.841844 0.028269
vt 0.796822 0.014612
vt 0.750000 0.010000
vt 0.703178 0.014612
vt 0.658156 0.028269
vt 0.616663 0.050447
vt 0.580294 0.080294
vt 0.550447 0.116663
vt 0.528269 0.158156
vt 0.514612 0.203178
vt 0.510000 0.250000
vt 0.514612 0.296822
vt 0.528269 0.341844
vt 0.550447 0.383337
vt 0.580294 0.419706
vt 0.616663 0.449553
vt 0.658156 0.471731
vt 0.703178 0.485388
vt 0.312500 1.000000
vt 0.343750 1.000000
vt 0.343750 1.000000
vt 0.312500 1.000000
vt 0.500000 1.000000
vt 0.468750 1.000000
vt 0.218750 1.000000
vt 0.187500 1.000000
vt 0.906250 1.000000
vt 0.875000 1.000000
vt 0.625000 1.000000
vt 0.593750 1.000000
vt 0.062500 1.000000
vt 0.031250 1.000000
vt 0.718750 1.000000
vt 0.437500 1.000000
vt 0.156250 1.000000
vt 0.843750 1.000000
vt 0.562500 1.000000
vt 0.281250 1.000000
vt 1.000000 1.000000
vt 0.968750 1.000000
vt 0.000000 1.000000
vt 0.687500 1.000000
vt 0.406250 1.000000
vt 0.125000 1.000000
vt 0.812500 1.000000
vt 0.531250 1.000000
vt 0.250000 1.000000
vt 0.937500 1.000000
vt 0.656250 1.000000
vt 0.375000 1.000000
vt 0.093750 1.000000
vt 0.296822 0.485388
vt 0.250000 0.490000
vt 0.203178 0.485388
vt 0.158156 0.471731
vt 0.116663 0.449553
vt 0.080294 0.419706
vt 0.050447 0.383337
vt 0.028269 0.341844
vt 0.014612 0.296822
vt 0.010000 0.250000
vt 0.014612 0.203178
vt 0.028269 0.158156
vt 0.050447 0.116663
vt 0.080294 0.080294
vt 0.116663 0.050447
vt 0.158156 0.028269
vt 0.203178 0.014612
vt 0.250000 0.010000
vt 0.296822 0.014612
vt 0.341844 0.028269
vt 0.383337 0.050447
vt 0.419706 0.080294
vt 0.449553 0.116663
vt 0.471731 0.158156
vt 0.485388 0.203178
vt 0.490000 0.250000
vt 0.485388 0.296822
vt 0.471731 0.341844
vt 0.449553 0.383337
vt 0.419706 0.419706
vt 0.383337 0.449553
vt 0.341844 0.471731
vt 0.750000 1.000000
vt 0.718750 1.000000
vt 0.281250 1.000000
vt 0.687500 1.000000
vt 0.250000 1.000000
vt 0.656250 1.000000
vt 0.218750 1.000000
vt 0.625000 1.000000
vt 0.187500 1.000000
vt 0.593750 1.000000
vt 0.156250 1.000000
vt 0.562500 1.000000
vt 1.000000 1.000000
vt 0.968750 1.000000
vt 0.125000 1.000000
vt 0.531250 1.000000
vt 0.937500 1.000000
vt 0.093750 1.000000
vt 0.500000 1.000000
vt 0.906250 1.000000
vt 0.062500 1.000000
vt 0.468750 1.000000
vt 0.875000 1.000000
vt 0.031250 1.000000
vt 0.437500 1.000000
vt 0.843750 1.000000
vt 0.000000 1.000000
vt 0.406250 1.000000
vt 0.812500 1.000000
vt 0.375000 1.000000
vt 0.781250 1.000000
vt 0.031250 0.500000
vt 0.031250 0.857955
vt 0.000000 0.857955
vt 0.000000 0.500000
vt 0.062500 0.500000
vt 0.062500 0.857955
vt 0.093750 0.500000
vt 0.093750 0.857955
vt 0.125000 0.500000
vt 0.125000 0.857955
vt 0.156250 0.500000
vt 0.156250 0.857955
vt 0.187500 0.500000
vt 0.187500 0.857955
vt 0.218750 0.500000
vt 0.218750 0.857955
vt 0.250000 0.500000
vt 0.250000 0.857955
vt 0.281250 0.500000
vt 0.281250 0.857955
vt 0.312500 0.500000
vt 0.312500 0.857955
vt 0.343750 0.500000
vt 0.343750 0.857955
vt 0.375000 0.500000
vt 0.375000 0.857955
vt 0.406250 0.500000
vt 0.406250 0.857955
vt 0.437500 0.500000
vt 0.437500 0.857955
vt 0.468750 0.500000
vt 0.468750 0.857955
vt 0.500000 0.500000
vt 0.500000 0.857955
vt 0.531250 0.500000
vt 0.531250 0.857955
vt 0.562500 0.500000
vt 0.562500 0.857955
vt 0.593750 0.500000
vt 0.593750 0.857955
vt 0.625000 0.500000
vt 0.625000 0.857955
vt 0.656250 0.500000
vt 0.656250 0.857955
vt 0.687500 0.500000
vt 0.687500 0.857955
vt 0.718750 0.500000
vt 0.718750 0.857955
vt 0.750000 0.500000
vt 0.750000 0.857955
vt 0.781250 0.500000
vt 0.781250 0.857955
vt 0.812500 0.500000
vt 0.812500 0.857955
vt 0.843750 0.500000
vt 0.843750 0.857955
vt 0.875000 0.500000
vt 0.875000 0.857955
vt 0.906250 0.500000
vt 0.906250 0.857955
vt 0.937500 0.500000
vt 0.937500 0.857955
vt 0.968750 0.500000
vt 0.968750 0.857955
vt 1.000000 0.500000
vt 1.000000 0.857955
vt 0.750000 0.857955
vt 0.750000 0.902630
vt 0.750000 0.902630
vt 0.750000 0.857955
vt 0.718750 0.857955
vt 0.750000 0.857955
vt 0.718750 0.857955
vt 0.718750 0.857955
vt 0.718750 0.902630
vt 0.718750 0.902630
vt 0.750000 0.902630
vt 0.750000 0.902630
vt 0.750000 0.857955
vt 0.718750 0.902630
vt 0.718750 0.902630
vt 0.718750 0.902630
vt 0.750000 0.902630
vt 0.718750 0.857955
vt 0.718750 0.857955
vt 0.750000 0.857955
vt 0.750000 0.857955
vt 0.718750 0.857955
vt 0.718750 0.902630
vt 0.718750 0.857955
vt 0.718750 0.902630
vt 0.750000 0.902630
vt 0.750000 0.857955
vt 0.750000 0.857955
vt 0.718750 0.857955
vt 0.750000 0.902630
vt 0.750000 0.902630
vt 0.718750 0.902630
vn -0.0964 0.0000 -0.9953
vn 0.0996 0.0000 -0.9950
vn 0.2918 0.0000 -0.9565
vn 0.4728 0.0000 -0.8812
vn 0.6356 0.0000 -0.7720
vn 0.7740 0.0000 -0.6332
vn 0.8827 0.0000 -0.4700
vn 0.9574 0.0000 -0.2888
vn 0.9953 0.0000 -0.0964
vn 0.9916 0.0000 -0.1290
vn 0.9950 0.0000 0.0996
vn 0.9912 0.0000 0.1322
vn 0.9565 0.0000 0.2918
vn 0.8812 0.0000 0.4728
vn 0.7720 0.0000 0.6356
vn 0.6332 0.0000 0.7740
vn 0.4700 0.0000 0.8827
vn 0.2888 0.0000 0.9574
vn 0.0964 0.0000 0.9953
vn -0.0996 0.0000 0.9950
vn -0.2918 0.0000 0.9565
vn -0.4728 0.0000 0.8812
vn -0.6356 0.0000 0.7720
vn -0.7740 0.0000 0.6332
vn -0.8827 0.0000 0.4700
vn -0.9574 0.0000 0.2888
vn -0.9953 0.0000 0.0964
vn -0.9950 0.0000 -0.0996
vn -0.9565 0.0000 -0.2918
vn -0.8812 0.0000 -0.4728
vn -0.7720 0.0000 -0.6356
vn -0.6332 0.0000 -0.7740
vn -0.4700 0.0000 -0.8827
vn 0.0000 1.0000 -0.0000
vn -0.2888 0.0000 -0.9574
vn 0.0000 -1.0000 -0.0000
vn 0.0012 -0.0003 -1.0000
vn 0.0011 -0.0004 -1.0000
vn 0.0010 -0.0009 -1.0000
vn -0.9191 -0.3940 -0.0003
vn -0.9606 -0.2778 -0.0001
vn -0.9607 -0.2777 -0.0001
vn -0.0117 -0.9999 0.0005
vn -0.0116 -0.9999 0.0005
vn -0.2519 -0.9678 0.0003
vn -0.0011 0.0004 1.0000
vn -0.0012 0.0003 1.0000
vn -0.0010 0.0009 1.0000
vn 0.1403 0.9901 -0.0003
vn 0.1402 0.9901 -0.0003
vn 0.2797 0.9601 -0.0003
vn 0.0005 -0.0013 -1.0000
vn -0.0000 -0.0013 -1.0000
vn 0.8807 0.4737 0.0002
vn 0.9544 0.2985 0.0000
vn 0.9544 0.2984 0.0000
vn -0.0005 0.0013 1.0000
vn 0.9977 0.0673 -0.0001
vn 0.9998 0.0221 -0.0001
vn -0.0000 0.0013 1.0000
vn -0.9966 -0.0821 0.0001
vn -0.7264 0.6873 -0.0006
vn 0.0003 0.0012 1.0000
vn 0.0002 0.0012 1.0000
vn -1.0000 -0.0065 0.0001
vn -0.0002 -0.0012 -1.0000
vn -0.0003 -0.0012 -1.0000
vn -0.0021 1.0000 -0.0002
vn -0.0012 0.0002 1.0000
vn 0.2292 -0.9734 0.0006
vn 0.0012 -0.0002 -1.0000
vn 0.0006 0.0009 1.0000
vn 0.0007 0.0007 1.0000
vn 0.0013 0.0002 1.0000
vn -0.0006 -0.0009 -1.0000
vn -0.0007 -0.0007 -1.0000
vn 0.8766 -0.4813 0.0003
vn -0.0246 0.9997 -0.0003
vn -0.0117 0.9999 0.0000
vn -0.0376 0.9993 -0.0005
vn -0.0013 -0.0002 -1.0000
vn 0.1915 -0.9815 0.0003
vn 0.1020 -0.9948 0.0002
vn -0.9999 -0.0117 0.0016
vn -0.0016 -0.0000 -1.0000
vn 0.0117 -0.9999 -0.0000
vn 0.0016 0.0000 1.0000
usemtl None
s 1
f 161/1/1 2/2/1 4/3/2 162/4/2
f 162/4/2 4/3/2 6/5/3 163/6/3
f 163/6/3 6/5/3 8/7/4 164/8/4
f 164/8/4 8/7/4 10/9/5 165/10/5
f 165/10/5 10/9/5 12/11/6 166/12/6
f 166/12/6 12/11/6 14/13/7 167/14/7
f 167/14/7 14/13/7 16/15/8 168/16/8
f 168/16/8 16/15/8 18/17/9 169/18/10
f 169/18/10 18/17/9 20/19/11 170/20/12
f 170/20/12 20/19/11 22/21/13 171/22/13
f 171/22/13 22/21/13 24/23/14 172/24/14
f 172/24/14 24/23/14 26/25/15 173/26/15
f 173/26/15 26/25/15 28/27/16 174/28/16
f 174/28/16 28/27/16 30/29/17 175/30/17
f 175/30/17 30/29/17 32/31/18 176/32/18
f 176/32/18 32/31/18 34/33/19 177/34/19
f 177/34/19 34/33/19 36/35/20 178/36/20
f 178/36/20 36/35/20 38/37/21 179/38/21
f 179/38/21 38/37/21 40/39/22 180/40/22
f 180/40/22 40/39/22 42/41/23 181/42/23
f 181/42/23 42/41/23 44/43/24 182/44/24
f 182/44/24 44/43/24 46/45/25 183/46/25
f 183/46/25 46/45/25 48/47/26 184/48/26
f 184/48/26 48/47/26 50/49/27 185/50/27
f 185/50/27 50/49/27 52/51/28 186/52/28
f 186/52/28 52/51/28 54/53/29 187/54/29
f 187/54/29 54/53/29 56/55/30 188/56/30
f 188/56/30 56/55/30 58/57/31 189/58/31
f 189/58/31 58/57/31 60/59/32 190/60/32
f 190/60/32 60/59/32 62/61/33 191/62/33
f 18/17/34 16/15/34 72/63/34 73/64/34
f 191/62/33 62/61/33 64/65/35 192/66/35
f 192/66/35 64/65/35 2/67/1 161/68/1
f 1/69/36 3/70/36 5/71/36 7/72/36 9/73/36 11/74/36 13/75/36 15/76/36 17/77/36 19/78/36 21/79/36 23/80/36 25/81/36 27/82/36 29/83/36 31/84/36 33/85/36 35/86/36 37/87/36 39/88/36 41/89/36 43/90/36 45/91/36 47/92/36 49/93/36 51/94/36 53/95/36 55/96/36 57/97/36 59/98/36 61/99/36 63/100/36
f 87/101/7 86/102/6 118/103/6 119/104/7
f 36/35/34 34/33/34 81/105/34 82/106/34
f 54/53/34 52/51/34 90/107/34 91/108/34
f 10/9/34 8/7/34 68/109/34 69/110/34
f 28/27/34 26/25/34 77/111/34 78/112/34
f 46/45/34 44/43/34 86/102/34 87/101/34
f 64/65/34 62/61/34 95/113/34 96/114/34
f 20/19/34 18/17/34 73/64/34 74/115/34
f 38/37/34 36/35/34 82/106/34 83/116/34
f 56/55/34 54/53/34 91/108/34 92/117/34
f 12/11/34 10/9/34 69/110/34 70/118/34
f 30/29/34 28/27/34 78/112/34 79/119/34
f 48/47/34 46/45/34 87/101/34 88/120/34
f 4/3/34 2/2/34 65/121/34 66/122/34
f 2/67/34 64/65/34 96/114/34 65/123/34
f 22/21/34 20/19/34 74/115/34 75/124/34
f 40/39/34 38/37/34 83/116/34 84/125/34
f 58/57/34 56/55/34 92/117/34 93/126/34
f 14/13/34 12/11/34 70/118/34 71/127/34
f 32/31/34 30/29/34 79/119/34 80/128/34
f 50/49/34 48/47/34 88/120/34 89/129/34
f 6/5/34 4/3/34 66/122/34 67/130/34
f 24/23/34 22/21/34 75/124/34 76/131/34
f 42/41/34 40/39/34 84/125/34 85/132/34
f 60/59/34 58/57/34 93/126/34 94/133/34
f 16/15/34 14/13/34 71/127/34 72/63/34
f 34/33/34 32/31/34 80/128/34 81/105/34
f 52/51/34 50/49/34 89/129/34 90/107/34
f 8/7/34 6/5/34 67/130/34 68/109/34
f 26/25/34 24/23/34 76/131/34 77/111/34
f 44/43/34 42/41/34 85/132/34 86/102/34
f 62/61/34 60/59/34 94/133/34 95/113/34
f 98/134/34 97/135/34 128/136/34 127/137/34 126/138/34 125/139/34 124/140/34 123/141/34 122/142/34 121/143/34 120/144/34 119/145/34 118/146/34 117/147/34 116/148/34 115/149/34 114/150/34 113/151/34 112/152/34 111/153/34 110/154/34 109/155/34 108/156/34 107/157/34 106/158/34 105/159/34 104/160/34 103/161/34 102/162/34 101/163/34 100/164/34 99/165/34
f 74/115/28 73/64/27 105/166/27 106/167/28
f 88/120/8 87/101/7 119/104/7 120/168/8
f 75/124/29 74/115/28 106/167/28 107/169/29
f 89/129/9 88/120/8 120/168/8 121/170/9
f 76/131/30 75/124/29 107/169/29 108/171/30
f 90/107/11 89/129/9 121/170/9 122/172/11
f 77/111/31 76/131/30 108/171/30 109/173/31
f 91/108/13 90/107/11 122/172/11 123/174/13
f 78/112/32 77/111/31 109/173/31 110/175/32
f 92/117/14 91/108/13 123/174/13 124/176/14
f 79/119/33 78/112/32 110/175/32 111/177/33
f 66/122/20 65/121/19 97/178/19 98/179/20
f 93/126/15 92/117/14 124/176/14 125/180/15
f 80/128/35 79/119/33 111/177/33 112/181/35
f 67/130/21 66/122/20 98/179/20 99/182/21
f 94/133/16 93/126/15 125/180/15 126/183/16
f 81/105/1 80/128/35 112/181/35 113/184/1
f 68/109/22 67/130/21 99/182/21 100/185/22
f 95/113/17 94/133/16 126/183/16 127/186/17
f 82/106/2 81/105/1 113/184/1 114/187/2
f 69/110/23 68/109/22 100/185/22 101/188/23
f 96/114/18 95/113/17 127/186/17 128/189/18
f 83/116/3 82/106/2 114/187/2 115/190/3
f 70/118/24 69/110/23 101/188/23 102/191/24
f 65/123/19 96/114/18 128/189/18 97/192/19
f 84/125/4 83/116/3 115/190/3 116/193/4
f 71/127/25 70/118/24 102/191/24 103/194/25
f 85/132/5 84/125/4 116/193/4 117/195/5
f 72/63/26 71/127/25 103/194/25 104/196/26
f 86/102/6 85/132/5 117/195/5 118/103/6
f 73/64/27 72/63/26 104/196/26 105/166/27
f 63/197/35 160/198/35 129/199/1 1/200/1
f 61/201/33 159/202/33 160/198/35 63/197/35
f 59/203/32 158/204/32 159/202/33 61/201/33
f 57/205/31 157/206/31 158/204/32 59/203/32
f 55/207/30 156/208/30 157/206/31 57/205/31
f 53/209/29 155/210/29 156/208/30 55/207/30
f 51/211/28 154/212/28 155/210/29 53/209/29
f 49/213/27 153/214/27 154/212/28 51/211/28
f 47/215/26 152/216/26 153/214/27 49/213/27
f 45/217/25 151/218/25 152/216/26 47/215/26
f 43/219/24 150/220/24 151/218/25 45/217/25
f 41/221/23 149/222/23 150/220/24 43/219/24
f 39/223/22 148/224/22 149/222/23 41/221/23
f 37/225/21 147/226/21 148/224/22 39/223/22
f 35/227/20 146/228/20 147/226/21 37/225/21
f 33/229/19 145/230/19 146/228/20 35/227/20
f 31/231/18 144/232/18 145/230/19 33/229/19
f 29/233/17 143/234/17 144/232/18 31/231/18
f 27/235/16 142/236/16 143/234/17 29/233/17
f 25/237/15 141/238/15 142/236/16 27/235/16
f 23/239/14 140/240/14 141/238/15 25/237/15
f 21/241/13 139/242/13 140/240/14 23/239/14
f 19/243/11 138/244/12 139/242/13 21/241/13
f 17/245/9 137/246/10 138/244/12 19/243/11
f 15/247/8 136/248/8 137/246/10 17/245/9
f 13/249/7 135/250/7 136/248/8 15/247/8
f 11/251/6 134/252/6 135/250/7 13/249/7
f 9/253/5 133/254/5 134/252/6 11/251/6
f 7/255/4 132/256/4 133/254/5 9/253/5
f 5/257/3 131/258/3 132/256/4 7/255/4
f 3/259/2 130/260/2 131/258/3 5/257/3
f 1/261/1 129/262/1 130/260/2 3/259/2
f 160/198/35 192/66/35 161/68/1 129/199/1
f 159/202/33 191/62/33 192/66/35 160/198/35
f 158/204/32 190/60/32 191/62/33 159/202/33
f 157/206/31 189/58/31 190/60/32 158/204/32
f 156/208/30 188/56/30 189/58/31 157/206/31
f 155/210/29 187/54/29 188/56/30 156/208/30
f 154/212/28 186/52/28 187/54/29 155/210/29
f 153/214/27 185/50/27 186/52/28 154/212/28
f 152/216/26 184/48/26 185/50/27 153/214/27
f 151/218/25 183/46/25 184/48/26 152/216/26
f 150/220/24 182/44/24 183/46/25 151/218/25
f 149/222/23 181/42/23 182/44/24 150/220/24
f 148/224/22 180/40/22 181/42/23 149/222/23
f 147/226/21 179/38/21 180/40/22 148/224/22
f 146/228/20 178/36/20 179/38/21 147/226/21
f 145/230/19 177/34/19 178/36/20 146/228/20
f 144/232/18 176/32/18 177/34/19 145/230/19
f 143/234/17 175/30/17 176/32/18 144/232/18
f 142/236/16 174/28/16 175/30/17 143/234/17
f 141/238/15 173/26/15 174/28/16 142/236/16
f 140/240/14 172/24/14 173/26/15 141/238/15
f 139/242/13 171/22/13 172/24/14 140/240/14
f 138/244/12 170/20/12 171/22/13 139/242/13
f 210/263/37 209/264/38 193/265/39 194/266/39
f 136/248/8 168/16/8 169/18/10 137/246/10
f 135/250/7 167/14/7 168/16/8 136/248/8
f 134/252/6 166/12/6 167/14/7 135/250/7
f 133/254/5 165/10/5 166/12/6 134/252/6
f 132/256/4 164/8/4 165/10/5 133/254/5
f 131/258/3 163/6/3 164/8/4 132/256/4
f 130/260/2 162/4/2 163/6/3 131/258/3
f 129/262/1 161/1/1 162/4/2 130/260/2
f 196/267/40 194/266/40 198/268/41 200/269/42
f 211/270/43 210/263/44 194/266/45 196/267/45
f 212/271/46 211/270/47 196/267/48 195/272/48
f 209/264/49 212/271/50 195/272/51 193/265/51
f 198/268/52 197/273/52 201/274/53 202/275/53
f 194/266/39 193/265/39 197/273/52 198/268/52
f 193/265/54 195/272/54 199/276/55 197/273/56
f 195/272/48 196/267/48 200/269/57 199/276/57
f 201/274/58 203/277/58 207/278/59 205/279/59
f 197/273/56 199/276/55 203/277/58 201/274/58
f 199/276/57 200/269/57 204/280/60 203/277/60
f 200/269/42 198/268/41 202/275/61 204/280/61
f 208/281/62 206/282/62 214/283/62 216/284/62
f 203/277/60 204/280/60 208/281/63 207/278/64
f 204/280/61 202/275/61 206/282/65 208/281/65
f 202/275/53 201/274/53 205/279/66 206/282/67
f 169/18/68 170/20/68 212/271/50 209/264/49
f 170/20/69 138/244/69 211/270/47 212/271/46
f 138/244/70 137/246/70 210/263/44 211/270/43
f 137/246/71 169/18/71 209/264/38 210/263/37
f 215/285/72 216/284/73 220/286/74 219/287/74
f 206/282/67 205/279/66 213/288/75 214/283/76
f 205/279/77 207/278/77 215/285/77 213/288/77
f 207/278/64 208/281/63 216/284/73 215/285/72
f 220/286/78 218/289/78 222/290/79 224/291/79
f 216/284/80 214/283/80 218/289/78 220/286/78
f 214/283/76 213/288/75 217/292/81 218/289/81
f 213/288/82 215/285/82 219/287/83 217/292/83
f 222/290/84 221/293/84 223/294/84 224/291/84
f 218/289/81 217/292/81 221/293/85 222/290/85
f 217/292/83 219/287/83 223/294/86 221/293/86
f 219/287/74 220/286/74 224/291/87 223/294/87
