# Blender v3.2.1 OBJ File: ''
# www.blender.org
mtllib table.mtl
o Cube.003_Cube.004
v 0.140091 -0.005095 0.060710
v 0.140091 0.080656 0.060710
v 0.140091 -0.005095 0.050519
v 0.140091 0.080656 0.050519
v 0.150281 -0.005095 0.060710
v 0.150281 0.080656 0.060710
v 0.150281 -0.005095 0.050519
v 0.150281 0.080656 0.050519
v -0.150373 0.080074 0.060574
v -0.150373 0.090327 0.060574
v -0.150373 0.080074 -0.081131
v -0.150373 0.090327 -0.081131
v 0.150373 0.080074 0.060574
v 0.150373 0.090327 0.060574
v 0.150373 0.080074 -0.081131
v 0.150373 0.090327 -0.081131
v -0.150422 -0.005095 -0.070725
v -0.150422 0.080656 -0.070725
v -0.150422 -0.005095 -0.080915
v -0.150422 0.080656 -0.080915
v -0.140231 -0.005095 -0.070725
v -0.140231 0.080656 -0.070725
v -0.140231 -0.005095 -0.080915
v -0.140231 0.080656 -0.080915
v 0.140091 -0.005095 -0.070725
v 0.140091 0.080656 -0.070725
v 0.140091 -0.005095 -0.080915
v 0.140091 0.080656 -0.080915
v 0.150281 -0.005095 -0.070725
v 0.150281 0.080656 -0.070725
v 0.150281 -0.005095 -0.080915
v 0.150281 0.080656 -0.080915
v -0.150422 -0.005095 0.060710
v -0.150422 0.080656 0.060710
v -0.150422 -0.005095 0.050519
v -0.150422 0.080656 0.050519
v -0.140231 -0.005095 0.060710
v -0.140231 0.080656 0.060710
v -0.140231 -0.005095 0.050519
v -0.140231 0.080656 0.050519
vt 0.981047 0.318958
vt 0.846977 0.184888
vt 0.862910 0.168956
vt 0.996979 0.303025
vt 0.996979 0.034886
vt 0.846977 0.153023
vt 0.981047 0.018953
vt 0.712908 0.018953
vt 0.831045 0.168956
vt 0.696975 0.034886
vt 0.696975 0.303025
vt 0.712908 0.318958
vt 0.696975 0.003020
vt 0.681042 0.018953
vt 0.003020 0.025690
vt 0.003020 0.003020
vt 0.316341 0.003021
vt 0.316341 0.025690
vt 0.339010 0.025690
vt 0.339012 0.690661
vt 0.316341 0.690661
vt 0.316341 0.713331
vt 0.003020 0.713331
vt 0.003020 0.690661
vt 0.675002 0.690661
vt 0.652332 0.690661
vt 0.652330 0.025689
vt 0.675001 0.025689
vt 0.981047 0.318958
vt 0.846977 0.184888
vt 0.862910 0.168956
vt 0.996979 0.303025
vt 0.996979 0.034886
vt 0.846977 0.153023
vt 0.981047 0.018953
vt 0.712908 0.018953
vt 0.831045 0.168956
vt 0.696975 0.034886
vt 0.696975 0.303025
vt 0.712908 0.318958
vt 0.696975 0.003020
vt 0.681042 0.018953
vt 0.981047 0.318958
vt 0.846977 0.184888
vt 0.862910 0.168956
vt 0.996979 0.303025
vt 0.996979 0.034886
vt 0.846977 0.153023
vt 0.981047 0.018953
vt 0.712908 0.018953
vt 0.831045 0.168956
vt 0.696975 0.034886
vt 0.696975 0.303025
vt 0.712908 0.318958
vt 0.696975 0.003020
vt 0.681042 0.018953
vt 0.981047 0.318958
vt 0.846977 0.184888
vt 0.862910 0.168956
vt 0.996979 0.303025
vt 0.996979 0.034886
vt 0.846977 0.153023
vt 0.981047 0.018953
vt 0.712908 0.018953
vt 0.831045 0.168956
vt 0.696975 0.034886
vt 0.696975 0.303025
vt 0.712908 0.318958
vt 0.696975 0.003020
vt 0.681042 0.018953
vn -1.0000 0.0000 0.0000
vn 0.0000 0.0000 -1.0000
vn 1.0000 0.0000 0.0000
vn 0.0000 0.0000 1.0000
vn 0.0000 -1.0000 0.0000
vn 0.0000 1.0000 0.0000
usemtl Material
s off
f 1/1/1 2/2/1 4/3/1 3/4/1
f 3/5/2 4/3/2 8/6/2 7/7/2
f 7/8/3 8/6/3 6/9/3 5/10/3
f 5/11/4 6/9/4 2/2/4 1/12/4
f 3/13/5 7/8/5 5/10/5 1/14/5
f 8/6/6 4/3/6 2/2/6 6/9/6
f 9/15/1 10/16/1 12/17/1 11/18/1
f 11/18/2 12/19/2 16/20/2 15/21/2
f 15/21/3 16/22/3 14/23/3 13/24/3
f 13/25/4 14/26/4 10/27/4 9/28/4
f 11/18/5 15/21/5 13/24/5 9/15/5
f 16/20/6 12/19/6 10/27/6 14/26/6
f 17/29/1 18/30/1 20/31/1 19/32/1
f 19/33/2 20/31/2 24/34/2 23/35/2
f 23/36/3 24/34/3 22/37/3 21/38/3
f 21/39/4 22/37/4 18/30/4 17/40/4
f 19/41/5 23/36/5 21/38/5 17/42/5
f 24/34/6 20/31/6 18/30/6 22/37/6
f 25/43/1 26/44/1 28/45/1 27/46/1
f 27/47/2 28/45/2 32/48/2 31/49/2
f 31/50/3 32/48/3 30/51/3 29/52/3
f 29/53/4 30/51/4 26/44/4 25/54/4
f 27/55/5 31/50/5 29/52/5 25/56/5
f 32/48/6 28/45/6 26/44/6 30/51/6
f 33/57/1 34/58/1 36/59/1 35/60/1
f 35/61/2 36/59/2 40/62/2 39/63/2
f 39/64/3 40/62/3 38/65/3 37/66/3
f 37/67/4 38/65/4 34/58/4 33/68/4
f 35/69/5 39/64/5 37/66/5 33/70/5
f 40/62/6 36/59/6 34/58/6 38/65/6
